<svg fill="#51A7F9" xmlns="http://www.w3.org/2000/svg" xmlns:xlink="http://www.w3.org/1999/xlink" version="1.1" x="0px" y="0px" viewBox="0 0 100 100" style="enable-background:new 0 0 100 100;" xml:space="preserve"><g><g><path d="M50,5C25.2,5,5,25.2,5,50s20.2,45,45,45s45-20.2,45-45S74.8,5,50,5z M39.3,70.8L21.6,53.1c-1.7-1.7-1.7-4.6,0-6.3l0,0    c1.7-1.7,4.6-1.7,6.3,0l11.4,11.4c0.9,0.9,2.4,0.9,3.3,0l29.4-29.4c1.7-1.7,4.6-1.7,6.3,0l0,0c1.7,1.7,1.7,4.6,0,6.3L42.7,70.8    C41.7,71.8,40.3,71.8,39.3,70.8z"></path></g></g></svg>